<svg xmlns="http://www.w3.org/2000/svg" xmlns:xlink="http://www.w3.org/1999/xlink" fill="#000000" width="800px" height="800px" viewBox="0 0 512 512" xml:space="preserve"><g id="_x37_39_x2C__Business_x2C__connection_x2C__human_x2C__network_x2C__solution"><g><path d="M272.7,87.713c-2.796-2.773-6-5.163-9.525-7.026    c-0.763,6.166-4.015,11.808-9.021,16.324c2.557,1.53,5.424,2.798,8.532,3.776c4.374,1.361,9.249,2.127,14.364,2.127l4.255-0.191    l0.788-0.095C280.098,96.963,276.858,91.871,272.7,87.713 M260.869,106.618c-4.409-1.386-8.437-3.321-11.902-5.687    c-7.194,4.541-16.612,7.289-26.865,7.289c-3.358,0-6.633-0.287-9.763-0.86c-2.102-0.36-4.146-0.862-6.131-1.458    c-0.813,3.154-1.242,6.477-1.242,9.87c0,10.971,4.447,20.891,11.616,28.061c7.183,7.194,17.1,11.616,28.061,11.616    c10.958,0,20.876-4.422,28.046-11.616c7.183-7.17,11.629-17.09,11.629-28.061c0-2.437-0.229-4.852-0.646-7.17l-1.841,0.216    l-4.78,0.215C271.313,109.033,265.841,108.173,260.869,106.618z M244.642,76.098c-10.96,0-20.878,4.445-28.048,11.615    c-3.538,3.537-6.407,7.745-8.414,12.406c1.662,0.477,3.406,0.906,5.21,1.217c2.785,0.502,5.701,0.766,8.712,0.766    c9.895,0,18.811-2.845,25.241-7.408c6.022-4.303,9.775-10.158,9.87-16.563C253.27,76.813,249.039,76.098,244.642,76.098z     M218.278,174.641l24.594,23.662l26.565-23.758v26.268h-16.921h-0.084h-17.137h-0.072h-16.945V174.641z M275.317,175.096    l54.771,21.51v115.705h-26.019v-92.162c0-1.697-1.374-3.061-3.059-3.061s-3.061,1.363-3.061,3.061v95.555v131.886h-51.147v-87.095    c0-1.625-1.327-2.939-2.939-2.939c-1.614,0-2.941,1.314-2.941,2.939v87.095h-51.147V315.703v-95.555    c0-1.697-1.374-3.061-3.059-3.061c-1.687,0-3.061,1.363-3.061,3.061v92.162h-26.016V196.605l54.769-21.51v28.632    c0,1.627,1.314,2.94,2.939,2.94h17.005v16.827l-8.723,67.519c-0.204,1.603,0.932,3.061,2.534,3.275l33.27,0.024    c1.612,0,2.939-1.314,2.939-2.941l-7.003-67.829v-16.875h17.005c1.614,0,2.94-1.313,2.94-2.94V175.096z M151.619,466.758    c-1.614,0-2.929-1.314-2.929-2.939c0-1.602,1.314-2.916,2.929-2.916h171.155c1.625,0,2.939,1.314,2.939,2.916    c0,1.625-1.314,2.939-2.939,2.939H151.619z M240.578,485.999c-1.625,0-2.939-1.314-2.939-2.941c0-1.625,1.314-2.939,2.939-2.939    h137.264c1.624,0,2.938,1.314,2.938,2.939c0,1.627-1.314,2.941-2.938,2.941H240.578z M391.895,485.999    c-1.627,0-2.94-1.314-2.94-2.941c0-1.625,1.313-2.939,2.94-2.939h17.16c1.614,0,2.929,1.314,2.929,2.939    c0,1.627-1.314,2.941-2.929,2.941H391.895z M116.603,485.4c-1.612,0-2.939-1.314-2.939-2.939c0-1.602,1.327-2.939,2.939-2.939    h65.047c1.614,0,2.941,1.338,2.941,2.939c0,1.625-1.327,2.939-2.941,2.939H116.603z M249.493,206.668h-11.258v14.006h11.258    V206.668z M249.804,226.554h-11.939l-8.007,61.88h26.326L249.804,226.554z M243.864,26.002l42.556,30.902h47.491    c0.562-2.557,1.863-4.875,3.657-6.668c2.449-2.438,5.855-3.968,9.596-3.968s7.146,1.53,9.596,3.968l0.168,0.191    c2.365,2.438,3.824,5.761,3.824,9.418c0,3.729-1.53,7.122-3.992,9.584c-2.475,2.484-5.855,3.99-9.596,3.99    s-7.146-1.528-9.596-3.967l-0.191-0.215c-1.697-1.746-2.917-3.992-3.466-6.453h-39.414l42.783,31.07l-17.853,54.901l-0.191,0.597    h42.674c0.563-2.582,1.865-4.875,3.656-6.668l0.203-0.191c2.439-2.343,5.762-3.776,9.394-3.776c3.754,0,7.159,1.505,9.609,3.968    c2.45,2.461,3.979,5.855,3.979,9.609c0,3.727-1.529,7.122-3.979,9.582c-2.45,2.462-5.855,3.992-9.609,3.992    c-3.751,0-7.146-1.53-9.597-3.968l-0.179-0.214c-1.696-1.77-2.927-3.992-3.478-6.454h-44.587l-8.663,26.674l-35.722-14.03    c-1.995-0.766-4.325-0.431-6.034,1.1L243.04,190.32l-21.894-21.058c-1.601-1.649-4.087-2.294-6.357-1.409l-35.72,14.054    l-8.663-26.674h-43.56c-0.562,2.557-1.865,4.853-3.657,6.644c-2.475,2.462-5.868,3.992-9.597,3.992    c-3.751,0-7.157-1.53-9.607-3.968c-2.45-2.484-3.968-5.88-3.968-9.606c0-3.754,1.518-7.148,3.968-9.609    c2.45-2.463,5.855-3.968,9.607-3.968c3.634,0,6.956,1.434,9.394,3.776l0.204,0.191c1.804,1.793,3.095,4.086,3.657,6.668h41.647    l-0.191-0.597l-17.842-54.901l42.77-31.07h-38.383c-0.551,2.461-1.769,4.707-3.466,6.453l-0.191,0.215    c-2.439,2.438-5.856,3.967-9.597,3.967c-3.729,0-7.123-1.506-9.584-3.967c-2.475-2.485-4.004-5.879-4.004-9.607    c0-3.657,1.458-6.98,3.825-9.418l0.167-0.191c2.45-2.438,5.856-3.968,9.597-3.968c3.741,0,7.157,1.53,9.597,3.968    c1.792,1.793,3.093,4.111,3.657,6.668h46.462L243.864,26.002z" style="fill-rule:evenodd;clip-rule:evenodd;"></path></g></g><g id="Layer_1"></g></svg>